<svg xmlns="http://www.w3.org/2000/svg" viewBox="0 0 512 512"><path d="M110.933 300.875l76.937-44.877-76.937-44.876z"/><path d="M256 0C114.842 0 0 114.842 0 256s114.842 256 256 256 256-114.842 256-256S397.158 0 256 0zm-46.899 263.373l-102.4 59.733a8.588 8.588 0 01-4.301 1.161 8.48 8.48 0 01-4.25-1.135 8.53 8.53 0 01-4.284-7.398V196.267a8.529 8.529 0 014.284-7.398c2.645-1.527 5.914-1.502 8.55.026l102.4 59.733a8.527 8.527 0 014.233 7.373 8.527 8.527 0 01-4.232 7.372zm88.439-62.874l-68.267 119.467a8.514 8.514 0 01-7.415 4.301 8.43 8.43 0 01-4.224-1.126c-4.096-2.338-5.521-7.552-3.174-11.639l68.267-119.467c2.33-4.096 7.543-5.547 11.639-3.174 4.096 2.337 5.521 7.551 3.174 11.638zm43.793 115.234a8.525 8.525 0 01-8.533 8.533 8.525 8.525 0 01-8.533-8.533V196.267a8.525 8.525 0 018.533-8.533 8.525 8.525 0 018.533 8.533v119.466zm51.2 0a8.525 8.525 0 01-8.533 8.533 8.525 8.525 0 01-8.533-8.533V196.267a8.525 8.525 0 018.533-8.533 8.525 8.525 0 018.533 8.533v119.466z"/></svg>